<mxfile host="app.diagrams.net" modified="2023-12-17T16:09:33.876Z" agent="Mozilla/5.0 (Windows NT 10.0; Win64; x64) AppleWebKit/537.36 (KHTML, like Gecko) Chrome/120.0.0.0 Safari/537.36" etag="dwSkTSG3GFsGvej-WgaN" version="22.1.11" type="device">
  <diagram name="Page-1" id="hEF0k4yIQenBFDTPMhXy">
    <mxGraphModel dx="1674" dy="772" grid="1" gridSize="10" guides="1" tooltips="1" connect="1" arrows="1" fold="1" page="1" pageScale="1" pageWidth="850" pageHeight="1100" math="0" shadow="0">
      <root>
        <mxCell id="0" />
        <mxCell id="1" parent="0" />
        <mxCell id="xl62nXRLDi-l8yk4Oxnx-16" value="" style="edgeStyle=orthogonalEdgeStyle;rounded=0;orthogonalLoop=1;jettySize=auto;html=1;" edge="1" parent="1" source="xl62nXRLDi-l8yk4Oxnx-1" target="xl62nXRLDi-l8yk4Oxnx-8">
          <mxGeometry relative="1" as="geometry" />
        </mxCell>
        <mxCell id="xl62nXRLDi-l8yk4Oxnx-1" value="START" style="rounded=1;whiteSpace=wrap;html=1;" vertex="1" parent="1">
          <mxGeometry x="220" y="90" width="120" height="60" as="geometry" />
        </mxCell>
        <mxCell id="xl62nXRLDi-l8yk4Oxnx-2" value="STOP" style="rounded=1;whiteSpace=wrap;html=1;" vertex="1" parent="1">
          <mxGeometry x="390" y="410" width="120" height="60" as="geometry" />
        </mxCell>
        <mxCell id="xl62nXRLDi-l8yk4Oxnx-3" value="&lt;br&gt;&lt;br&gt;&lt;br&gt;7" style="ellipse;whiteSpace=wrap;html=1;aspect=fixed;" vertex="1" parent="1">
          <mxGeometry x="240" y="205" width="80" height="80" as="geometry" />
        </mxCell>
        <mxCell id="xl62nXRLDi-l8yk4Oxnx-4" value="" style="endArrow=none;html=1;rounded=0;exitX=0;exitY=1;exitDx=0;exitDy=0;entryX=1;entryY=0;entryDx=0;entryDy=0;" edge="1" parent="1" source="xl62nXRLDi-l8yk4Oxnx-3" target="xl62nXRLDi-l8yk4Oxnx-3">
          <mxGeometry width="50" height="50" relative="1" as="geometry">
            <mxPoint x="400" y="420" as="sourcePoint" />
            <mxPoint x="330" y="210" as="targetPoint" />
            <Array as="points" />
          </mxGeometry>
        </mxCell>
        <mxCell id="xl62nXRLDi-l8yk4Oxnx-5" value="" style="endArrow=none;html=1;rounded=0;entryX=1;entryY=1;entryDx=0;entryDy=0;exitX=0.063;exitY=0.238;exitDx=0;exitDy=0;exitPerimeter=0;" edge="1" parent="1" source="xl62nXRLDi-l8yk4Oxnx-3" target="xl62nXRLDi-l8yk4Oxnx-3">
          <mxGeometry width="50" height="50" relative="1" as="geometry">
            <mxPoint x="200" y="230" as="sourcePoint" />
            <mxPoint x="250" y="180" as="targetPoint" />
          </mxGeometry>
        </mxCell>
        <mxCell id="xl62nXRLDi-l8yk4Oxnx-6" value="&amp;nbsp; &amp;nbsp; x+=2" style="text;html=1;strokeColor=none;fillColor=none;align=center;verticalAlign=middle;whiteSpace=wrap;rounded=0;" vertex="1" parent="1">
          <mxGeometry x="220" y="230" width="60" height="40" as="geometry" />
        </mxCell>
        <mxCell id="xl62nXRLDi-l8yk4Oxnx-7" value="x" style="text;html=1;strokeColor=none;fillColor=none;align=center;verticalAlign=middle;whiteSpace=wrap;rounded=0;" vertex="1" parent="1">
          <mxGeometry x="250" y="200" width="60" height="30" as="geometry" />
        </mxCell>
        <mxCell id="xl62nXRLDi-l8yk4Oxnx-8" value="x&amp;lt;=31" style="text;html=1;strokeColor=none;fillColor=none;align=center;verticalAlign=middle;whiteSpace=wrap;rounded=0;" vertex="1" parent="1">
          <mxGeometry x="261" y="227" width="80" height="40" as="geometry" />
        </mxCell>
        <mxCell id="xl62nXRLDi-l8yk4Oxnx-10" value="x" style="shape=document;whiteSpace=wrap;html=1;boundedLbl=1;" vertex="1" parent="1">
          <mxGeometry x="235" y="310" width="90" height="50" as="geometry" />
        </mxCell>
        <mxCell id="xl62nXRLDi-l8yk4Oxnx-11" value="" style="endArrow=none;html=1;rounded=0;" edge="1" parent="1">
          <mxGeometry width="50" height="50" relative="1" as="geometry">
            <mxPoint x="270" y="400" as="sourcePoint" />
            <mxPoint x="300" y="400" as="targetPoint" />
          </mxGeometry>
        </mxCell>
        <mxCell id="xl62nXRLDi-l8yk4Oxnx-12" value="" style="endArrow=none;html=1;rounded=0;" edge="1" parent="1">
          <mxGeometry width="50" height="50" relative="1" as="geometry">
            <mxPoint x="260" y="410" as="sourcePoint" />
            <mxPoint x="310" y="410" as="targetPoint" />
          </mxGeometry>
        </mxCell>
        <mxCell id="xl62nXRLDi-l8yk4Oxnx-13" value="" style="endArrow=classic;html=1;rounded=0;" edge="1" parent="1">
          <mxGeometry width="50" height="50" relative="1" as="geometry">
            <mxPoint x="284" y="370" as="sourcePoint" />
            <mxPoint x="284" y="400" as="targetPoint" />
          </mxGeometry>
        </mxCell>
        <mxCell id="xl62nXRLDi-l8yk4Oxnx-14" value="" style="endArrow=classic;html=1;rounded=0;" edge="1" parent="1">
          <mxGeometry width="50" height="50" relative="1" as="geometry">
            <mxPoint x="281" y="282" as="sourcePoint" />
            <mxPoint x="281" y="312" as="targetPoint" />
          </mxGeometry>
        </mxCell>
        <mxCell id="xl62nXRLDi-l8yk4Oxnx-15" value="" style="endArrow=classic;html=1;rounded=0;" edge="1" parent="1" source="xl62nXRLDi-l8yk4Oxnx-8">
          <mxGeometry width="50" height="50" relative="1" as="geometry">
            <mxPoint x="400" y="420" as="sourcePoint" />
            <mxPoint x="450" y="390" as="targetPoint" />
          </mxGeometry>
        </mxCell>
      </root>
    </mxGraphModel>
  </diagram>
</mxfile>
